<?xml version="1.0" encoding="iso-8859-1"?>
<!-- Generator: Adobe Illustrator 19.0.0, SVG Export Plug-In . SVG Version: 6.00 Build 0)  -->
<svg version="1.1" id="Capa_1" xmlns="http://www.w3.org/2000/svg" xmlns:xlink="http://www.w3.org/1999/xlink" x="0px" y="0px"
	 viewBox="0 0 512.562 512.562" style="enable-background:new 0 0 512.562 512.562;" xml:space="preserve">
<g>
	<path style="fill:#FFA000;" d="M496.695,322.695c-19.691-16.811-52.203-11.605-83.605-6.613
		c-13.055,2.467-26.276,3.965-39.552,4.48c-4.48-0.005-8.486,2.791-10.027,6.997c-8.577,24.14-7.125,50.71,4.032,73.771
		c14.266,21.565,32.227,40.443,53.056,55.765c3.223,2.347,7.485,2.701,11.051,0.917c3.285-1.557,80.555-40.811,80.555-94.784
		C513.385,348.073,507.69,333.191,496.695,322.695z"/>
	<path style="fill:#FFA000;" d="M234.018,22.94c-11.945-16.671-32.181-25.3-52.48-22.379c-52.736,0-102.4,65.472-104.533,68.267
		c-1.661,2.171-2.424,4.898-2.133,7.616c3.69,29.047,28.845,50.536,58.112,49.643h4.672c23.162,0.457,46.264-2.497,68.565-8.768
		c2.352-0.782,4.359-2.358,5.675-4.459C237.602,71.943,244.834,42.503,234.018,22.94z"/>
</g>
<g>
	<path style="fill:#FFB300;" d="M443.554,450.418c-42.335-31.319-64.917-82.717-59.349-135.083v-5.44
		c0-2.855-1.145-5.591-3.179-7.595c-2.097-1.918-4.818-3.009-7.659-3.072c-23.395,1.203-46.812-1.914-69.077-9.195
		c-3.741-2.212-8.45-1.934-11.904,0.704c-2.496,1.899-60.885,47.189-51.904,109.483c7.844,39.881,30.247,75.417,62.848,99.691
		c1.808,1.281,3.971,1.967,6.187,1.963h0.555c10.795-0.576,106.24-6.4,134.976-35.115c4.165-4.166,4.164-10.92-0.002-15.085
		c-0.465-0.464-0.971-0.885-1.513-1.256H443.554z"/>
	<path style="fill:#FFB300;" d="M232.738,100.828c-5.589-7.296-16.405-3.691-30.933-0.448
		c-33.387,7.552-83.904,18.923-118.08-31.104c-1.779-2.678-4.672-4.41-7.872-4.715c-3.166-0.316-6.305,0.822-8.533,3.093
		C39.095,95.922,23.394,181.084,21.708,190.706c-0.931,5.28,2.201,10.43,7.317,12.032c20.711,5.342,42.062,7.79,63.445,7.275
		c9.109,0,19.2-0.363,29.867-1.259c36.165-2.972,70.521-17.072,98.347-40.363c2.218-2.002,3.495-4.842,3.52-7.829
		c2.018-17.103,5.457-34.007,10.283-50.539C235.351,106.852,234.706,103.46,232.738,100.828z"/>
</g>
<path style="fill:#FFC107;" d="M277.538,384.562c0-24.32,10.24-69.44,37.739-87.019c4.966-3.17,6.422-9.765,3.252-14.73
	c-1.152-1.805-2.82-3.221-4.788-4.064c-44.249-23.893-73.787-68.156-78.869-118.187c0-5.891-4.776-10.667-10.667-10.667
	c-47.424,0-224,18.667-224,74.667c0,2.88,8.427,288,309.333,288c5.891,0.011,10.675-4.757,10.686-10.648
	c0.005-2.84-1.123-5.565-3.134-7.571C291.431,463.525,277.43,424.663,277.538,384.562z"/>
<g>
</g>
<g>
</g>
<g>
</g>
<g>
</g>
<g>
</g>
<g>
</g>
<g>
</g>
<g>
</g>
<g>
</g>
<g>
</g>
<g>
</g>
<g>
</g>
<g>
</g>
<g>
</g>
<g>
</g>
</svg>
